Coordinates
version=1
nRows=14
nColumns=36
inDegrees=yes

Units are S.I. units (second, meters, Newtons, ...)
If the header above contains a line with 'inDegrees', this indicates whether rotational values are in degrees (yes) or radians (no).

endheader
time	pelvis_tilt	pelvis_list	pelvis_rotation	pelvis_tx	pelvis_ty	pelvis_tz	hip_flexion_r	hip_adduction_r	hip_rotation_r	knee_angle_r	knee_angle_r_beta	ankle_angle_r	subtalar_angle_r	mtp_angle_r	hip_flexion_l	hip_adduction_l	hip_rotation_l	knee_angle_l	knee_angle_l_beta	ankle_angle_l	subtalar_angle_l	mtp_angle_l	lumbar_extension	lumbar_bending	lumbar_rotation	arm_flex_r	arm_add_r	arm_rot_r	elbow_flex_r	pro_sup_r	arm_flex_l	arm_add_l	arm_rot_l	elbow_flex_l	pro_sup_l
     14.91666670	      7.43783038	     -1.71951438	     -3.52152037	      0.32284689	      1.02411658	      0.74489508	     12.88298493	      0.50932394	      0.79358667	      8.64118790	      0.15081718	     -2.59724202	     -1.42104830	     -7.49999987	    -16.20737973	      0.12291578	     -3.01559505	     12.34673772	      0.21549123	     16.28545016	     -5.00905165	     -7.49999987	    -16.69936924	      0.97979866	      4.82764501	     -0.88831001	    -14.45173946	     -6.83176207	     28.54910735	     89.55532816	     14.87032587	    -11.83155986	     20.47234616	     22.89409413	     90.47170967
     14.93333330	      7.39527876	     -1.88715685	     -3.44150100	      0.32119417	      1.02212973	      0.74871402	     12.70538297	      0.89609984	      0.99986726	      9.26168063	      0.16164682	     -3.18041733	     -2.12476926	     -7.49999987	    -16.25783991	     -0.25376826	     -3.11933573	     13.03340030	      0.22747575	     16.74262007	     -4.48114284	     -7.49999987	    -16.59785570	      1.21429820	      4.52849243	      0.16571595	    -14.60583043	     -5.19234770	     27.17746711	     90.21726953	     14.33407633	    -11.79134889	     20.01846645	     22.62026018	     90.19100594
     14.95000000	      7.40848133	     -2.07924984	     -3.34955073	      0.31954067	      1.02044238	      0.75274701	     12.57581285	      1.27307828	      0.99291180	     10.02317658	      0.17493743	     -3.30613081	     -2.47658386	     -7.49999987	    -16.27826946	     -0.66771851	     -3.09255949	     13.90502452	      0.24268846	     16.92145157	     -4.55001909	     -7.49999987	    -16.81149783	      1.44809519	      4.78055713	      0.46763520	    -14.64691982	     -5.15934043	     27.21687516	     90.22737687	     14.08210352	    -11.60250363	     19.99577370	     22.54156685	     90.18698490
     14.96666670	      7.37329631	     -2.28445733	     -3.19984801	      0.31779824	      1.01998553	      0.75591682	     12.53401586	      1.65722901	      1.05118659	     10.83963684	      0.18918735	     -3.36415282	     -3.19651192	     -7.49999987	    -16.09136699	     -1.16585050	     -3.07366149	     15.11680822	      0.26383808	     17.24722307	     -4.53341979	     -7.49999987	    -17.05377860	      1.69200858	      4.99141385	      0.86808211	    -14.70462440	     -5.04145262	     27.15256383	     90.27230909	     13.86444784	    -11.36954206	     19.89157441	     22.34597516	     90.18548976
     14.98333330	      7.14436722	     -2.49762041	     -3.11319870	      0.31592115	      1.02156492	      0.75781462	     12.68232352	      2.07792632	      1.25389817	     11.70028778	      0.20420855	     -3.52003682	     -4.42929993	     -7.49999987	    -15.63310053	     -1.73434199	     -3.23641457	     16.56252884	      0.28907066	     17.40391670	     -4.20671932	     -7.49999987	    -16.92017718	      1.99942167	      4.48380436	      2.25724158	    -14.83051316	     -2.90974435	     25.78041003	     90.34472172	     13.05387903	    -11.21989516	     18.49355839	     22.04929323	     90.11640032
     15.00000000	      6.98440624	     -2.80454843	     -2.98733806	      0.31393790	      1.02409996	      0.75861313	     12.70473769	      2.55653305	      1.25519565	     12.62869754	      0.22041235	     -3.28010002	     -5.23862696	     -7.49999987	    -15.09898140	     -2.42413962	     -3.32369409	     18.45962689	      0.32218127	     17.19507589	     -4.24327853	     -7.49999987	    -16.96043773	      2.41648505	      4.36633589	      3.08297082	    -14.92697610	     -2.20123736	     25.14663933	     91.04692082	     12.61984598	    -10.82442426	     17.02164447	     21.63946064	     92.48467566
     15.01666670	      6.77443860	     -3.14103241	     -2.85616412	      0.31171125	      1.02568376	      0.76019583	     12.69482927	      3.10478911	      1.37350477	     13.56276519	      0.23671491	     -2.89660240	     -6.23316162	     -7.49999987	    -14.22942202	     -3.19947488	     -3.41102618	     21.04238050	      0.36725882	     16.59674255	     -4.43837093	     -7.49999987	    -16.87648889	      2.91834297	      4.07024760	      4.09161484	    -15.04472284	     -1.09731070	     24.32306298	     90.64782276	     12.25902559	    -10.49769310	     16.74825680	     20.96575873	     91.87826016
     15.03333330	      6.60142596	     -3.54391917	     -2.72696767	      0.30950489	      1.02538469	      0.76376102	     12.54469497	      3.76721933	      1.52843508	     14.47709076	      0.25267290	     -2.14050925	     -7.10960726	     -7.49999987	    -12.91608287	     -4.13506568	     -3.58127445	     24.58017669	      0.42900501	     15.58587846	     -4.76170334	     -7.49999987	    -16.86233342	      3.41445191	      3.91837115	      4.75079864	    -15.25508544	      0.25834994	     24.09476773	     90.32010299	     12.08702000	    -10.29791608	     16.81039595	     20.33468803	     91.50595772
     15.05000000	      6.48709790	     -3.99908081	     -2.61531510	      0.30873445	      1.02670252	      0.76805938	     12.23821192	      4.50422609	      1.60416080	     15.40192552	      0.26881431	     -0.87366839	     -7.59650649	     -7.49999987	    -11.16065318	     -5.12508752	     -3.55761414	     28.92801716	      0.50488915	     13.96266680	     -5.62557804	     -7.49999987	    -16.87696714	      4.06235731	      3.63787230	      5.47845567	    -15.58193672	      1.84849944	     23.90795241	     90.90781338	     11.88273329	    -10.10612124	     16.88291781	     19.68168630	     92.60365918
     15.06666670	      6.84252008	     -4.47820413	     -2.66637058	      0.31016950	      1.03018989	      0.77167427	     11.25066094	      5.34201188	      1.98295825	     16.10781750	      0.28113445	      0.51674455	     -8.08158414	     -7.49999987	     -9.57872974	     -6.20300786	     -3.86719760	     33.70426530	      0.58825040	     11.79029351	     -6.06626482	     -7.49999987	    -17.56031793	      4.60654668	      3.80058975	      5.89864935	    -15.70343307	      1.82884791	     24.08294138	     90.88177853	     11.80796024	     -9.99648501	     16.84741260	     19.53054289	     92.57766423
     15.08333330	      6.99668909	     -5.03124419	     -2.51049345	      0.31216115	      1.03337724	      0.77363673	     10.33608905	      6.20146304	      2.06004925	     16.61373079	      0.28996430	      1.89442320	     -8.45217753	     -7.49999987	     -7.27708515	     -7.41002522	     -3.72781667	     39.03867279	      0.68135338	      9.32693235	     -6.81650661	     -7.49999987	    -17.88361389	      5.34439112	      3.78156337	      6.16038628	    -15.91281730	      1.88887203	     24.31697844	     90.90620179	     11.66227613	     -9.78511099	     16.83501635	     19.12873768	     92.59801259
     15.10000000	      6.57127576	     -5.39967807	     -2.30383209	      0.31313950	      1.03334421	      0.77560163	      9.95366340	      6.82449833	      1.85681397	     16.94370364	      0.29572342	      3.30183417	     -8.25768582	     -7.49999987	     -4.06137667	     -8.41740989	     -3.30717179	     44.47389853	      0.77621596	      6.37905859	     -7.81375611	     -7.49999987	    -17.33572553	      5.86869508	      3.55140483	      6.02256410	    -16.04697387	      2.29474396	     24.92451954	     91.14250468	     11.53393289	     -9.54710957	     16.87728641	     18.03843609	     92.84697181
     15.11666670	      6.82524882	     -5.83908081	     -2.18986550	      0.31308014	      1.03301616	      0.77837276	      8.68865179	      7.51353113	      1.83480566	     16.95216836	      0.29587115	      4.45759991	     -8.19583522	     -7.49999987	     -1.59628319	     -9.42866169	     -3.07818866	     49.55860379	      0.86496081	      3.94265372	     -8.37857178	     -7.49999987	    -17.69803889	      6.39944483	      3.76629955	      6.07036626	    -16.29334546	      2.52680716	     25.44352259	     91.26758314	     11.52285256	     -9.36236253	     16.98993367	     17.57338929	     93.03588305
     15.13333330	      6.77083919	     -6.12236795	     -2.16885149	      0.31438622	      1.03265886	      0.78093059	      7.69813307	      8.01165191	      1.71446518	     16.90662724	      0.29507631	      5.66165998	     -7.73618778	     -7.49999987	      1.18823107	    -10.11447975	     -2.71078448	     54.22971287	      0.94648704	      1.89489418	     -8.90449066	     -7.49999987	    -17.65575954	      6.72681529	      4.30273832	      5.41345981	    -16.81647970	      3.02875078	     27.14916522	     91.35281258	     11.67331385	     -9.03636764	     17.52547457	     16.66192889	     93.60862299
